<svg width="120" height="120" viewBox="0 0 120 120" fill="none" xmlns="http://www.w3.org/2000/svg">
<g clip-path="url(#clip0_3081_2132)">
<path d="M60 0C93.1401 0 120 26.8653 120 60C120 93.1401 93.1401 120 60 120C26.8653 120 0 93.1374 0 60C0 26.8653 26.8653 0 60 0Z" fill="#F5AC37"/>
<path d="M85.0104 64.2361C85.4964 64.2361 85.7259 64.2362 85.761 63.5989C85.9473 61.2796 85.9473 58.9468 85.761 56.6248C85.761 56.1739 85.5369 55.9876 85.0482 55.9876H39.6742C39.1126 55.9876 38.9614 56.1739 38.9614 56.7004V63.3748C38.9614 64.2361 38.9614 64.2361 39.8605 64.2361H85.0104ZM83.2149 48.1872C83.2797 48.0171 83.2797 47.8308 83.2149 47.6634C82.8342 46.8345 82.3832 46.0434 81.8594 45.3009C81.071 44.0318 80.1422 42.8627 79.0838 41.8124C78.5843 41.1779 78.0065 40.6082 77.3585 40.1249C74.1131 37.3628 70.2547 35.408 66.1075 34.4251C64.015 33.9553 61.8765 33.7312 59.7327 33.7501H39.5959C39.0343 33.7501 38.9587 33.9742 38.9587 34.463V47.7741C38.9587 48.3357 38.9587 48.4869 39.6715 48.4869H82.9449C82.9449 48.4869 83.3202 48.4113 83.3958 48.1872H83.2122H83.2149ZM83.2149 72.0365C82.5777 71.9663 81.935 71.9663 81.2978 72.0365H39.712C39.1504 72.0365 38.9614 72.0365 38.9614 72.7871V85.8013C38.9614 86.4007 38.9614 86.5519 39.712 86.5519H58.9119C59.8299 86.6221 60.7479 86.5573 61.647 86.3656C64.4335 86.1658 67.174 85.561 69.7876 84.5647C70.738 84.2352 71.656 83.8059 72.5228 83.2902H72.7846C77.2856 80.9493 80.9414 77.2719 83.2473 72.7574C83.2473 72.7574 83.5092 72.1904 83.2149 72.0419V72.0365ZM31.4256 93.2992V72.563C31.4256 72.0743 31.4256 72.0014 30.8262 72.0014H22.6884C22.2374 72.0014 22.0511 72.0014 22.0511 71.402V64.2766H30.7506C31.2366 64.2766 31.4256 64.2766 31.4256 63.6394V56.5897C31.4256 56.1388 31.4256 56.0281 30.8262 56.0281H22.6884C22.2374 56.0281 22.0511 56.0281 22.0511 55.4287V48.8298C22.0511 48.4167 22.0512 48.306 22.6506 48.306H30.7128C31.2744 48.306 31.4256 48.306 31.4256 47.5932V27.3808C31.4256 26.7814 31.4256 26.6302 32.1763 26.6302H60.2997C62.3409 26.7112 64.3687 26.9353 66.3748 27.3052C70.5085 28.0693 74.4803 29.5462 78.1118 31.6549C80.5202 33.0724 82.7369 34.7843 84.7107 36.7553C86.1957 38.297 87.5349 39.9656 88.7229 41.7422C89.9028 43.5431 90.8829 45.4683 91.6524 47.4798C91.7469 48.0036 92.2491 48.3573 92.7729 48.2682H99.4852C100.347 48.2682 100.347 48.2682 100.384 49.0944V55.2451C100.384 55.8445 100.16 55.9957 99.5581 55.9957H94.3822C93.8584 55.9957 93.7072 55.9957 93.745 56.6707C93.9502 58.9549 93.9502 61.2472 93.745 63.5314C93.745 64.1686 93.7449 64.2442 94.4605 64.2442H100.382C100.644 64.5817 100.382 64.9193 100.382 65.2595C100.419 65.6942 100.419 66.1343 100.382 66.569V71.1077C100.382 71.7449 100.195 71.9339 99.631 71.9339H92.5434C92.0493 71.8394 91.5687 72.1553 91.4553 72.6467C89.7678 77.0343 87.0678 80.9682 83.5794 84.1218C82.3049 85.2693 80.9657 86.3494 79.5671 87.3457C78.0659 88.2097 76.6052 89.1088 75.0662 89.8216C72.2338 91.096 69.2638 92.0356 66.2155 92.6323C63.3211 93.1507 60.3861 93.3856 57.4404 93.3451H31.4148V93.3073L31.4256 93.2992Z" fill="#FEFEFD"/>
</g>
<defs>
<clipPath id="clip0_3081_2132">
<rect width="120" height="120" fill="white"/>
</clipPath>
</defs>
</svg>
