<svg width="120" height="120" viewBox="0 0 120 120" fill="none" xmlns="http://www.w3.org/2000/svg">
<g clip-path="url(#clip0_3605_2137)">
<circle cx="60" cy="60" r="60" fill="#00A3FF"/>
<path d="M33.6544 55.8848L32.9611 56.9331C24.9881 69.5129 26.7213 85.9366 37.4675 96.4198C43.3606 102.71 51.6803 105.855 59.9999 105.855C59.9999 105.855 59.9999 105.855 33.6544 55.8848Z" fill="white"/>
<path d="M60.0001 70.9105L33.6545 55.5352C60.0001 105.855 60.0001 105.855 60.0001 105.855C60.0001 95.0219 60.0001 82.442 60.0001 70.9105Z" fill="#9ADAFE"/>
<path d="M86.3456 55.8848L87.0389 56.9331C95.0119 69.5129 93.2786 85.9366 82.5324 96.4198C76.2927 102.71 68.3197 105.855 60 105.855C60 105.855 60 105.855 86.3456 55.8848Z" fill="#9ADAFE"/>
<path d="M60 70.9105L86.3456 55.5352C60 105.855 60 105.855 60 105.855C60 95.0219 60 82.442 60 70.9105Z" fill="#33B5FF"/>
<path d="M60 37.0146V63.2226L82.879 50.2934L60 37.0146Z" fill="#33B5FF"/>
<path d="M60.0004 37.0146L37.1213 50.2934L60.0004 63.2226V37.0146Z" fill="#9ADAFE"/>
<path d="M60.0004 15L37.1213 50.2934L60.0004 37.0147V15Z" fill="white"/>
<path d="M60 37.0147L82.879 50.2934L60 15V37.0147Z" fill="#9ADAFE"/>
</g>
<defs>
<clipPath id="clip0_3605_2137">
<rect width="120" height="120" fill="white"/>
</clipPath>
</defs>
</svg>
