<svg width="120" height="120" viewBox="0 0 120 120" fill="none" xmlns="http://www.w3.org/2000/svg">
<g clip-path="url(#clip0_3081_2117)">
<path d="M60 120C93.2502 120 120 93.2502 120 60C120 26.7498 93.2502 0 60 0C26.7498 0 0 26.7498 0 60C0 93.2502 26.7498 120 60 120Z" fill="#2775CA"/>
<path d="M76.5002 69.5C76.5002 60.7502 71.2502 57.7502 60.7502 56.5004C53.2502 55.5002 51.7502 53.5004 51.7502 50C51.7502 46.4996 54.2504 44.2502 59.2502 44.2502C63.7502 44.2502 66.2504 45.7502 67.5002 49.5002C67.7504 50.2502 68.5004 50.75 69.2504 50.75H73.25C74.2502 50.75 75.0002 50 75.0002 49.0004V48.7502C74 43.25 69.5 39.0002 63.7502 38.5004V32.5004C63.7502 31.5002 63.0002 30.7502 61.7504 30.5H58.0004C57.0002 30.5 56.2502 31.25 56 32.5004V38.2502C48.5 39.2504 43.7504 44.2502 43.7504 50.5004C43.7504 58.7504 48.7502 62 59.2502 63.2504C66.2504 64.5002 68.5004 66.0002 68.5004 70.0004C68.5004 74.0006 65 76.7504 60.2504 76.7504C53.75 76.7504 51.5 74 50.75 70.25C50.5004 69.2504 49.7504 68.75 49.0004 68.75H44.75C43.7504 68.75 43.0004 69.5 43.0004 70.5002V70.7504C44 77 48.0002 81.5 56.2502 82.7504V88.7504C56.2502 89.75 57.0002 90.5 58.25 90.7502H62C63.0002 90.7502 63.7502 90.0002 64.0004 88.7504V82.7504C71.5004 81.5 76.5002 76.25 76.5002 69.5Z" fill="white"/>
<path d="M47.2503 95.7504C27.7503 88.7508 17.7501 67.0008 25.0005 47.7504C28.7505 37.2504 37.0005 29.2506 47.2503 25.5006C48.2505 25.0008 48.7503 24.2508 48.7503 23.0004V19.5006C48.7503 18.5004 48.2505 17.7504 47.2503 17.5008C47.0001 17.5008 46.5003 17.5008 46.2501 17.7504C22.5003 25.2504 9.50011 50.5008 17.0001 74.2506C21.5001 88.2504 32.2503 99.0006 46.2501 103.501C47.2503 104 48.2505 103.501 48.5001 102.5C48.7503 102.251 48.7503 102.001 48.7503 101.501V98.0004C48.7503 97.2504 48.0003 96.2508 47.2503 95.7504ZM73.7505 17.7504C72.7503 17.2506 71.7501 17.7504 71.5005 18.7506C71.2503 19.0008 71.2503 19.2504 71.2503 19.7508V23.2506C71.2503 24.2508 72.0003 25.2504 72.7503 25.7508C92.2503 32.7504 102.25 54.5004 95.0001 73.7508C91.2501 84.2508 83.0001 92.2506 72.7503 96.0006C71.7501 96.5004 71.2503 97.2504 71.2503 98.5008V102.001C71.2503 103.001 71.7501 103.751 72.7503 104C73.0005 104 73.5003 104 73.7505 103.751C97.5003 96.2508 110.5 71.0004 103 47.2506C98.5005 33.0006 87.5001 22.2504 73.7505 17.7504Z" fill="white"/>
</g>
<defs>
<clipPath id="clip0_3081_2117">
<rect width="120" height="120" fill="white"/>
</clipPath>
</defs>
</svg>
