<svg width="120" height="120" viewBox="0 0 120 120" fill="none" xmlns="http://www.w3.org/2000/svg">
<g clip-path="url(#clip0_3571_4777)">
<circle cx="60" cy="60" r="60" fill="white"/>
<path d="M97.8474 25.1838L94.5525 28.4787C102.415 37.0765 106.775 48.3053 106.775 59.9559C106.775 71.6065 102.415 82.8353 94.5525 91.4331L97.8474 94.728C106.591 85.244 111.445 72.8169 111.445 59.9175C111.445 47.018 106.591 34.5909 97.8474 25.1069V25.1838Z" fill="#5A5564"/>
<path d="M28.5556 25.4694C37.1534 17.6073 48.3822 13.2473 60.0328 13.2473C71.6834 13.2473 82.9122 17.6073 91.51 25.4694L94.8049 22.1745C85.3209 13.431 72.8938 8.57666 59.9944 8.57666C47.0949 8.57666 34.6678 13.431 25.1838 22.1745L28.5556 25.4694Z" fill="#5A5564"/>
<path d="M25.4694 91.4663C17.6166 82.8705 13.2624 71.6485 13.2624 60.0056C13.2624 48.3627 17.6166 37.1408 25.4694 28.5449L22.1745 25.25C13.431 34.734 8.57666 47.1611 8.57666 60.0605C8.57666 72.96 13.431 85.3871 22.1745 94.8711L25.4694 91.4663Z" fill="#5A5564"/>
<path d="M91.4661 94.5083C82.8683 102.37 71.6395 106.73 59.9889 106.73C48.3383 106.73 37.1095 102.37 28.5117 94.5083L25.2168 97.8032C34.7008 106.547 47.1279 111.401 60.0273 111.401C72.9268 111.401 85.3539 106.547 94.8379 97.8032L91.4661 94.5083Z" fill="#5A5564"/>
<path d="M80.8019 49.0058C80.1429 42.1305 74.2121 39.824 66.7107 39.1211V29.6538H60.9117V38.9454C59.3851 38.9454 57.8255 38.9454 56.2769 38.9454V29.6538H50.5218V39.187H38.759V45.3924C38.759 45.3924 43.0424 45.3155 42.9765 45.3924C43.7488 45.3074 44.524 45.5256 45.1386 46.0009C45.7532 46.4762 46.1594 47.1716 46.2714 47.9405V74.036C46.2549 74.3072 46.1842 74.5723 46.0634 74.8156C45.9427 75.059 45.7744 75.2756 45.5685 75.4528C45.3664 75.6334 45.1299 75.7712 44.8732 75.858C44.6166 75.9448 44.345 75.9789 44.0748 75.958C44.1517 76.0239 39.8573 75.958 39.8573 75.958L38.759 82.8883H50.412V92.5753H56.211V83.0311H60.8458V92.5313H66.6558V82.9542C76.4526 82.3611 83.284 79.9448 84.1407 70.7741C84.8326 63.3935 81.362 60.0986 75.8156 58.7697C79.1874 57.1112 81.2741 54.036 80.8019 49.0058ZM72.6745 69.6318C72.6745 76.8367 60.3296 76.0129 56.3977 76.0129V63.2288C60.3296 63.2397 72.6745 62.1085 72.6745 69.6318ZM69.9836 51.6198C69.9836 58.2095 59.6816 57.4078 56.4087 57.4078V45.7878C59.6816 45.7878 69.9836 44.7554 69.9836 51.6198Z" fill="#F09242"/>
<path d="M59.989 120C48.1231 119.998 36.5242 116.477 26.659 109.884C16.7937 103.29 9.10505 93.9191 4.56515 82.9559C0.0252569 71.9928 -1.16202 59.9297 1.15345 48.2919C3.46891 36.6541 9.18313 25.9641 17.5736 17.5736C25.9641 9.18313 36.6541 3.46891 48.2919 1.15345C59.9297 -1.16202 71.9928 0.0252569 82.9559 4.56515C93.9191 9.10505 103.29 16.7937 109.884 26.659C116.477 36.5242 119.998 48.1231 120 59.989C120.001 67.8702 118.45 75.6744 115.435 82.9559C112.42 90.2375 107.999 96.8536 102.426 102.426C96.8536 107.999 90.2375 112.42 82.9559 115.435C75.6744 118.45 67.8702 120.001 59.989 120ZM59.989 4.67877C49.0568 4.68746 38.3726 7.93689 29.2868 14.0164C20.2009 20.0958 13.1213 28.7324 8.94275 38.8345C4.7642 48.9366 3.67429 60.0507 5.81078 70.7721C7.94727 81.4935 13.2142 91.3408 20.946 99.0695C28.6778 106.798 38.5272 112.061 49.2494 114.194C59.9717 116.326 71.0854 115.231 81.1858 111.049C91.2862 106.866 99.92 99.7833 105.996 90.695C112.072 81.6067 115.317 70.9212 115.321 59.989C115.324 52.7229 113.895 45.5275 111.115 38.8142C108.335 32.1009 104.259 26.0015 99.1199 20.8646C93.981 15.7277 87.8799 11.6541 81.1655 8.87683C74.4511 6.09954 67.2551 4.673 59.989 4.67877Z" fill="#282138"/>
</g>
<defs>
<clipPath id="clip0_3571_4777">
<rect width="120" height="120" fill="white"/>
</clipPath>
</defs>
</svg>
