<svg width="120" height="120" viewBox="0 0 120 120" fill="none" xmlns="http://www.w3.org/2000/svg">
<g clip-path="url(#clip0_3081_2149)">
<path d="M32.9746 120C63.8972 120 63.8972 119.542 69.1403 117.992C75.9923 115.966 49.7947 97.9083 32.9746 97.9083C16.1546 97.9083 2.51933 102.854 2.51933 108.954C2.51933 115.055 16.1553 120 32.9746 120Z" fill="black"/>
<path d="M103.192 26.0669L104.615 27.5932L103.371 29.2673C63.0424 83.5658 39.8105 108.151 29.9534 104.853C23.9495 102.845 17.9284 96.8048 11.9071 88.034C9.79066 84.951 7.80324 81.7047 5.99569 78.4741C4.79202 76.3228 3.77323 74.3608 3.24425 73.2557C2.56947 71.846 2.28458 70.9775 2.05856 69.837C2.04477 69.7671 2.04477 69.7671 2.03167 69.6999C1.93733 69.2158 1.90469 69.0627 1.83418 68.7981C0.620667 64.2437 0 59.5251 0 54.7272C0 24.5022 24.6055 0 54.9578 0C64.4669 0 73.6304 2.40991 81.7514 6.93375L81.961 7.06439C88.6101 11.6741 95.6824 18.0082 103.192 26.0669ZM79.1822 11.2558C71.8353 7.18687 63.5574 5.02084 54.9578 5.02084C27.3901 5.02084 5.042 27.2751 5.042 54.7272C5.042 59.0895 5.60574 63.3752 6.70756 67.5105C6.81651 67.9194 6.86578 68.1504 6.98137 68.7436C6.9935 68.8058 6.9935 68.8058 7.00516 68.8649C7.15104 69.601 7.30493 70.0701 7.79565 71.0953C8.27821 72.1034 9.24796 73.9711 10.4002 76.0304C12.1375 79.1354 14.0466 82.2539 16.0694 85.2004C21.5095 93.1248 26.9047 98.5371 31.559 100.094C37.7665 102.171 61.1354 77.5368 98.0665 27.9634C91.3616 20.916 85.0631 15.3467 79.1822 11.2558Z" fill="black"/>
<path d="M79.1823 11.2524C71.8355 7.18353 63.5575 5.0175 54.958 5.0175C27.3902 5.0175 5.04217 27.2718 5.04217 54.7238C5.04217 59.0861 5.60591 63.3719 6.70772 67.5071C6.81668 67.9161 6.86595 68.1471 6.98153 68.7403C6.99366 68.8025 6.99366 68.8025 7.00533 68.8616C7.1512 69.5977 7.3051 70.0668 7.79581 71.092C8.27837 72.1001 9.24813 73.9677 10.4003 76.027C12.1376 79.132 14.0468 82.2505 16.0696 85.1971C21.5097 93.1214 26.9049 98.5337 31.5592 100.091C37.7667 102.167 61.1356 77.5334 98.0666 27.9601C91.3617 20.9126 85.0632 15.3434 79.1823 11.2524Z" fill="#EC1C79"/>
<path d="M65.0422 119.496C34.6898 119.496 10.0843 94.9941 10.0843 64.7692C10.0843 34.5442 34.6898 10.042 65.0422 10.042C95.3945 10.042 120 34.5442 120 64.7692C120 94.9941 95.3945 119.496 65.0422 119.496ZM65.0422 114.475C92.6099 114.475 114.958 92.2212 114.958 64.7692C114.958 37.3171 92.6099 15.0628 65.0422 15.0628C37.4744 15.0628 15.1263 37.3171 15.1263 64.7692C15.1263 92.2212 37.4744 114.475 65.0422 114.475Z" fill="black"/>
<path d="M65.0423 114.472C92.6101 114.472 114.958 92.2179 114.958 64.7658C114.958 37.3138 92.6101 15.0595 65.0423 15.0595C37.4746 15.0595 15.1265 37.3138 15.1265 64.7658C15.1265 92.2179 37.4746 114.472 65.0423 114.472Z" fill="white"/>
<path fill-rule="evenodd" clip-rule="evenodd" d="M27.7032 74.9492L21.0962 55.1269H26.8844L30.3291 66.5141L34.1408 55.0706H38.8561L42.6679 66.5141L46.1126 55.1269H51.7878L45.1808 74.9492H40.409L36.4279 63.6181L32.4749 74.9492H27.7032ZM53.9619 74.8086V55.1269H69.8584V59.7661H59.3831V62.7465H68.8701V67.0484H59.3831V70.1693H69.9996V74.8086H53.9619ZM77.6231 74.8086V59.9067H71.6937V55.1269H89.0301V59.9067H83.1007V74.8086H77.6231ZM91.4301 74.8086V55.1269H96.9077V62.4935H103.938V55.1269H109.416V74.8086H103.938V67.3295H96.9077V74.8086H91.4301Z" fill="black"/>
<path d="M3.27342 49.2115C1.87866 48.5171 1.31333 46.8282 2.01071 45.4393C2.70809 44.0504 4.4041 43.4874 5.79886 44.1819L13.8661 48.1986C15.2608 48.893 15.8262 50.5819 15.1288 51.9708C14.4314 53.3597 12.7354 53.9227 11.3406 53.2282L3.27342 49.2115Z" fill="black"/>
<path d="M2.34676 62.5294C0.930889 61.8787 0.312816 60.2083 0.966259 58.7983C1.6197 57.3884 3.29722 56.7729 4.71309 57.4236L12.7803 61.1311C14.1962 61.7818 14.8142 63.4523 14.1608 64.8622C13.5074 66.2721 11.8298 66.8876 10.414 66.2369L2.34676 62.5294Z" fill="black"/>
</g>
<defs>
<clipPath id="clip0_3081_2149">
<rect width="120" height="120" fill="white"/>
</clipPath>
</defs>
</svg>
